<svg version="1.1" id="Layer_1" xmlns="http://www.w3.org/2000/svg" x="0" y="0" viewBox="0 0 1920 885" xml:space="preserve"><style>.st0{fill:none;stroke:red}</style><path id="Line_15" class="st0" d="M774 113.88h374"/><path id="Line_1" class="st0" d="M.25 884.38l961-883.5"/><path id="Line_2" class="st0" d="M1920.25 884.38L961.25.88"/><path id="Line_4" class="st0" d="M499.15 885.12L961.25.88"/><path id="Line_5" class="st0" d="M1441.25 884.38L961.25.88"/><path id="Line_6" class="st0" d="M.25 581.59L961.25.88"/><path id="Line_7" class="st0" d="M1920.25 581.59L961.25.88"/><path id="Line_3" class="st0" d="M960.25 884.38l1-883.5"/><path id="Line_10" class="st0" d="M394 343.88h1134"/><path id="Line_12" class="st0" d="M576 233.88h770"/><path id="Line_16" class="st0" d="M872 54.88h178.75"/><path id="Line_13" class="st0" d="M121 508.88h1679"/><path id="Line_14" class="st0" d="M692 163.88h538"/><path id="Line_11" class="st0" d="M824 83.88h274"/><path id="Line_9" class="st0" d="M-.25 753.88h1920"/><path id="Line_16_1_" class="st0" d="M898 39.3h127"/><path id="Line_16_2_" class="st0" d="M912 30.5h98"/><path id="Line_16_3_" class="st0" d="M924 23.5h75"/></svg>