<svg xmlns="http://www.w3.org/2000/svg" viewBox="0 0 300 140"><linearGradient id="a" gradientUnits="userSpaceOnUse" x1="89.26" y1="173.57" x2="274.29" y2="-11.46"><stop offset="0" stop-color="#a30aa1"/><stop offset=".58" stop-color="#750ac5"/><stop offset="1" stop-color="#1327bd"/></linearGradient><path fill="url(#a)" stroke="#5be492" stroke-width=".25" stroke-miterlimit="10" d="M184.13 84.34l1.94 1.93 34.43-25.76h-36.37z"/><linearGradient id="b" gradientUnits="userSpaceOnUse" x1="112.88" y1="197.2" x2="297.91" y2="12.16"><stop offset="0" stop-color="#a30aa1"/><stop offset=".58" stop-color="#750ac5"/><stop offset="1" stop-color="#1327bd"/></linearGradient><path fill="url(#b)" stroke="#5be492" stroke-width=".25" stroke-miterlimit="10" d="M270.34 43.06l2.75-3.9-2.75-2.75z"/><linearGradient id="c" gradientUnits="userSpaceOnUse" x1="159.69" y1="244.01" x2="344.73" y2="58.97"><stop offset="0" stop-color="#a30aa1"/><stop offset=".58" stop-color="#750ac5"/><stop offset="1" stop-color="#1327bd"/></linearGradient><path fill="url(#c)" stroke="#5be492" stroke-width=".25" stroke-miterlimit="10" d="M264.81 139.41H300l-31.34-40.08-10.25 32.1z"/><linearGradient id="d" gradientUnits="userSpaceOnUse" x1="97.29" y1="181.61" x2="282.33" y2="-3.43"><stop offset="0" stop-color="#a30aa1"/><stop offset=".58" stop-color="#750ac5"/><stop offset="1" stop-color="#1327bd"/></linearGradient><path fill="url(#d)" stroke="#5be492" stroke-width=".25" stroke-miterlimit="10" d="M262.8 28.87l-7.79-7.8-17.96 8.01h25.48z"/><linearGradient id="e" gradientUnits="userSpaceOnUse" x1="43.22" y1="127.54" x2="228.26" y2="-57.49"><stop offset="0" stop-color="#a30aa1"/><stop offset=".58" stop-color="#750ac5"/><stop offset="1" stop-color="#1327bd"/></linearGradient><path fill="url(#e)" stroke="#5be492" stroke-width=".25" stroke-miterlimit="10" d="M64.85 105.8l.12.11-.05-.14z"/><linearGradient id="f" gradientUnits="userSpaceOnUse" x1="26.05" y1="110.37" x2="211.09" y2="-74.66"><stop offset="0" stop-color="#a30aa1"/><stop offset=".58" stop-color="#750ac5"/><stop offset="1" stop-color="#1327bd"/></linearGradient><path fill="url(#f)" stroke="#5be492" stroke-width=".25" stroke-miterlimit="10" d="M52.27 65.88l-21.66 5.67 34.24 34.25.07-.03z"/><linearGradient id="g" gradientUnits="userSpaceOnUse" x1="40.26" y1="124.58" x2="225.29" y2="-60.46"><stop offset="0" stop-color="#a30aa1"/><stop offset=".58" stop-color="#750ac5"/><stop offset="1" stop-color="#1327bd"/></linearGradient><path fill="url(#g)" stroke="#5be492" stroke-width=".25" stroke-miterlimit="10" d="M122.48 22.69l-8.58 27.05 28.24-7.39z"/><linearGradient id="h" gradientUnits="userSpaceOnUse" x1="99.85" y1="184.16" x2="284.88" y2="-.87"><stop offset="0" stop-color="#a30aa1"/><stop offset=".58" stop-color="#750ac5"/><stop offset="1" stop-color="#1327bd"/></linearGradient><path fill="url(#h)" stroke="#5be492" stroke-width=".25" stroke-miterlimit="10" d="M139.05 139.41h29.07V99.7l-29.07 21.74z"/><linearGradient id="i" gradientUnits="userSpaceOnUse" x1="76.53" y1="160.85" x2="261.56" y2="-24.19"><stop offset="0" stop-color="#a30aa1"/><stop offset=".58" stop-color="#750ac5"/><stop offset="1" stop-color="#1327bd"/></linearGradient><path fill="url(#i)" stroke="#5be492" stroke-width=".25" stroke-miterlimit="10" d="M241.28 7.35l-41.29 4.45 12.2 12.21 36.26-9.5z"/><linearGradient id="j" gradientUnits="userSpaceOnUse" x1="73.11" y1="157.43" x2="258.15" y2="-27.61"><stop offset="0" stop-color="#a30aa1"/><stop offset=".58" stop-color="#750ac5"/><stop offset="1" stop-color="#1327bd"/></linearGradient><path fill="url(#j)" stroke="#5be492" stroke-width=".25" stroke-miterlimit="10" d="M162.21 62.42l5.91 5.91v-8.54z"/><linearGradient id="k" gradientUnits="userSpaceOnUse" x1="-24.5" y1="59.82" x2="160.54" y2="-125.22"><stop offset="0" stop-color="#a30aa1"/><stop offset=".58" stop-color="#750ac5"/><stop offset="1" stop-color="#1327bd"/></linearGradient><path fill="url(#k)" stroke="#5be492" stroke-width=".25" stroke-miterlimit="10" d="M31.69 1H.05l10.49 31.25 30.04-3.24z"/><linearGradient id="l" gradientUnits="userSpaceOnUse" x1="138.75" y1="223.07" x2="323.78" y2="38.03"><stop offset="0" stop-color="#a30aa1"/><stop offset=".58" stop-color="#750ac5"/><stop offset="1" stop-color="#1327bd"/></linearGradient><path fill="url(#l)" stroke="#5be492" stroke-width=".25" stroke-miterlimit="10" d="M272.09 88.59h4.69l-3.56-3.55z"/><linearGradient id="m" gradientUnits="userSpaceOnUse" x1="103.76" y1="188.08" x2="288.8" y2="3.05"><stop offset="0" stop-color="#a30aa1"/><stop offset=".58" stop-color="#750ac5"/><stop offset="1" stop-color="#1327bd"/></linearGradient><path fill="url(#m)" stroke="#5be492" stroke-width=".25" stroke-miterlimit="10" d="M263.01 29.08l-.21-.21-.27.21z"/><linearGradient id="n" gradientUnits="userSpaceOnUse" x1="108.82" y1="193.14" x2="293.86" y2="8.11"><stop offset="0" stop-color="#a30aa1"/><stop offset=".58" stop-color="#750ac5"/><stop offset="1" stop-color="#1327bd"/></linearGradient><path d="M263.01 29.08h7.33v7.33l2.75 2.75L294.5 8.87c-.39-.46-.79-.92-1.22-1.35-.28-.28-.58-.53-.87-.79l-29.6 22.14.2.21z" fill="url(#n)" stroke="#5be492" stroke-width=".25" stroke-miterlimit="10"/><linearGradient id="o" gradientUnits="userSpaceOnUse" x1="67.54" y1="151.86" x2="252.58" y2="-33.17"><stop offset="0" stop-color="#a30aa1"/><stop offset=".58" stop-color="#750ac5"/><stop offset="1" stop-color="#1327bd"/></linearGradient><path fill="url(#o)" stroke="#5be492" stroke-width=".25" stroke-miterlimit="10" d="M241.28 7.35L234.93 1h-45.75l10.81 10.8z"/><linearGradient id="p" gradientUnits="userSpaceOnUse" x1="88.88" y1="173.19" x2="273.91" y2="-11.84"><stop offset="0" stop-color="#a30aa1"/><stop offset=".58" stop-color="#750ac5"/><stop offset="1" stop-color="#1327bd"/></linearGradient><path d="M285.66 2.56a21.57 21.57 0 00-8.2-1.56h-42.53l6.35 6.35 44.38-4.79z" fill="url(#p)" stroke="#5be492" stroke-width=".25" stroke-miterlimit="10"/><linearGradient id="q" gradientUnits="userSpaceOnUse" x1="43.38" y1="127.7" x2="228.41" y2="-57.34"><stop offset="0" stop-color="#a30aa1"/><stop offset=".58" stop-color="#750ac5"/><stop offset="1" stop-color="#1327bd"/></linearGradient><path fill="url(#q)" stroke="#5be492" stroke-width=".25" stroke-miterlimit="10" d="M189.18 1h-59.81l-6.06 19.08 76.68-8.28z"/><linearGradient id="r" gradientUnits="userSpaceOnUse" x1="93.15" y1="177.47" x2="278.19" y2="-7.57"><stop offset="0" stop-color="#a30aa1"/><stop offset=".58" stop-color="#750ac5"/><stop offset="1" stop-color="#1327bd"/></linearGradient><path d="M248.45 14.51L288.62 4c-.76-.44-1.54-.85-2.37-1.22-.19-.09-.4-.14-.6-.22l-44.38 4.79 7.18 7.16z" fill="url(#r)" stroke="#5be492" stroke-width=".25" stroke-miterlimit="10"/><linearGradient id="s" gradientUnits="userSpaceOnUse" x1="117.35" y1="201.67" x2="302.39" y2="16.63"><stop offset="0" stop-color="#a30aa1"/><stop offset=".58" stop-color="#750ac5"/><stop offset="1" stop-color="#1327bd"/></linearGradient><path d="M273.09 39.16l11.2 11.2 12.3-38.51a20.21 20.21 0 00-2.1-2.98l-21.4 30.29z" fill="url(#s)" stroke="#5be492" stroke-width=".25" stroke-miterlimit="10"/><linearGradient id="t" gradientUnits="userSpaceOnUse" x1="52.74" y1="137.06" x2="237.77" y2="-47.98"><stop offset="0" stop-color="#a30aa1"/><stop offset=".58" stop-color="#750ac5"/><stop offset="1" stop-color="#1327bd"/></linearGradient><path fill="url(#t)" stroke="#5be492" stroke-width=".25" stroke-miterlimit="10" d="M142.14 42.35l25.98-6.8v-6.47h24.71l19.36-5.07-12.2-12.21-76.68 8.28-.83 2.61z"/><linearGradient id="u" gradientUnits="userSpaceOnUse" x1="101.65" y1="185.96" x2="286.68" y2=".93"><stop offset="0" stop-color="#a30aa1"/><stop offset=".58" stop-color="#750ac5"/><stop offset="1" stop-color="#1327bd"/></linearGradient><path d="M262.8 28.87l29.6-22.14a21.92 21.92 0 00-1.85-1.49l-35.54 15.84 7.79 7.79z" fill="url(#u)" stroke="#5be492" stroke-width=".25" stroke-miterlimit="10"/><linearGradient id="v" gradientUnits="userSpaceOnUse" x1="64.62" y1="148.93" x2="249.65" y2="-36.1"><stop offset="0" stop-color="#a30aa1"/><stop offset=".58" stop-color="#750ac5"/><stop offset="1" stop-color="#1327bd"/></linearGradient><path d="M121.65 117.66l14.67-43.7-35.05 15.62-6.9 21.76H70.39l27.86 27.86c5.57-.59 10.13-2.48 13.63-5.71 4.26-3.97 7.53-9.24 9.77-15.83z" fill="url(#v)" stroke="#5be492" stroke-width=".25" stroke-miterlimit="10"/><linearGradient id="w" gradientUnits="userSpaceOnUse" x1="135.33" y1="219.65" x2="320.36" y2="34.61"><stop offset="0" stop-color="#a30aa1"/><stop offset=".58" stop-color="#750ac5"/><stop offset="1" stop-color="#1327bd"/></linearGradient><path fill="url(#w)" stroke="#5be492" stroke-width=".25" stroke-miterlimit="10" d="M272.09 88.59l1.13-3.55-19.07-19.07-22.59 31.96 26.85 33.5 10.25-32.1-8.4-10.74z"/><linearGradient id="x" gradientUnits="userSpaceOnUse" x1="56.29" y1="140.61" x2="241.32" y2="-44.43"><stop offset="0" stop-color="#a30aa1"/><stop offset=".58" stop-color="#750ac5"/><stop offset="1" stop-color="#1327bd"/></linearGradient><path d="M66.69 111.33l-1.72-5.42-.11-.11-25.78 11.48.13.38c2.24 6.46 5.54 11.71 9.89 15.71 4.35 4.03 10.22 6.04 17.6 6.04h27.68c1.35 0 2.63-.09 3.87-.22l-27.86-27.86h-3.7z" fill="url(#x)" stroke="#5be492" stroke-width=".25" stroke-miterlimit="10"/><linearGradient id="y" gradientUnits="userSpaceOnUse" x1="-1.92" y1="82.39" x2="183.11" y2="-102.64"><stop offset="0" stop-color="#a30aa1"/><stop offset=".58" stop-color="#750ac5"/><stop offset="1" stop-color="#1327bd"/></linearGradient><path fill="url(#y)" stroke="#5be492" stroke-width=".25" stroke-miterlimit="10" d="M52.27 65.88L40.58 29.01l-30.04 3.24 9.72 28.95 10.35 10.35z"/><linearGradient id="z" gradientUnits="userSpaceOnUse" x1="3.75" y1="88.06" x2="188.78" y2="-96.97"><stop offset="0" stop-color="#a30aa1"/><stop offset=".58" stop-color="#750ac5"/><stop offset="1" stop-color="#1327bd"/></linearGradient><path fill="url(#z)" stroke="#5be492" stroke-width=".25" stroke-miterlimit="10" d="M20.26 61.2l4.03 12.01 6.32-1.66z"/><linearGradient id="A" gradientUnits="userSpaceOnUse" x1="24.88" y1="109.19" x2="209.91" y2="-75.84"><stop offset="0" stop-color="#a30aa1"/><stop offset=".58" stop-color="#750ac5"/><stop offset="1" stop-color="#1327bd"/></linearGradient><path fill="url(#A)" stroke="#5be492" stroke-width=".25" stroke-miterlimit="10" d="M30.61 71.55l-6.32 1.66 14.79 44.07 25.77-11.48z"/><linearGradient id="B" gradientUnits="userSpaceOnUse" x1="126.27" y1="210.59" x2="311.31" y2="25.56"><stop offset="0" stop-color="#a30aa1"/><stop offset=".58" stop-color="#750ac5"/><stop offset="1" stop-color="#1327bd"/></linearGradient><path d="M299.6 65.67V22.75a21.33 21.33 0 00-3-10.89l-12.3 38.51 15.3 15.3z" fill="url(#B)" stroke="#5be492" stroke-width=".25" stroke-miterlimit="10"/><linearGradient id="C" gradientUnits="userSpaceOnUse" x1="60.94" y1="145.26" x2="245.98" y2="-39.78"><stop offset="0" stop-color="#a30aa1"/><stop offset=".58" stop-color="#750ac5"/><stop offset="1" stop-color="#1327bd"/></linearGradient><path fill="url(#C)" stroke="#5be492" stroke-width=".25" stroke-miterlimit="10" d="M168.12 59.79V35.55l-25.98 6.8 20.07 20.07z"/><linearGradient id="D" gradientUnits="userSpaceOnUse" x1="77.74" y1="162.06" x2="262.78" y2="-22.97"><stop offset="0" stop-color="#a30aa1"/><stop offset=".58" stop-color="#750ac5"/><stop offset="1" stop-color="#1327bd"/></linearGradient><path fill="url(#D)" stroke="#5be492" stroke-width=".25" stroke-miterlimit="10" d="M162.21 62.42l-23.16 10.32v48.7l29.07-21.74V68.33z"/><linearGradient id="E" gradientUnits="userSpaceOnUse" x1="54.91" y1="139.23" x2="239.95" y2="-45.81"><stop offset="0" stop-color="#a30aa1"/><stop offset=".58" stop-color="#750ac5"/><stop offset="1" stop-color="#1327bd"/></linearGradient><path fill="url(#E)" stroke="#5be492" stroke-width=".25" stroke-miterlimit="10" d="M142.14 42.35l-28.24 7.39-12.63 39.83 35.05-15.62 2.73-8.14v6.93l23.16-10.32z"/><linearGradient id="F" gradientUnits="userSpaceOnUse" x1="74.9" y1="159.22" x2="259.94" y2="-25.81"><stop offset="0" stop-color="#a30aa1"/><stop offset=".58" stop-color="#750ac5"/><stop offset="1" stop-color="#1327bd"/></linearGradient><path fill="url(#F)" stroke="#5be492" stroke-width=".25" stroke-miterlimit="10" d="M212.19 24.01l-19.36 5.07h24.43z"/><linearGradient id="G" gradientUnits="userSpaceOnUse" x1="97.53" y1="181.85" x2="282.56" y2="-3.19"><stop offset="0" stop-color="#a30aa1"/><stop offset=".58" stop-color="#750ac5"/><stop offset="1" stop-color="#1327bd"/></linearGradient><path d="M290.55 5.24c-.62-.44-1.26-.86-1.93-1.24l-40.18 10.52 6.56 6.56 35.55-15.84z" fill="url(#G)" stroke="#5be492" stroke-width=".25" stroke-miterlimit="10"/><linearGradient id="H" gradientUnits="userSpaceOnUse" x1="135.37" y1="219.68" x2="320.4" y2="34.65"><stop offset="0" stop-color="#a30aa1"/><stop offset=".58" stop-color="#750ac5"/><stop offset="1" stop-color="#1327bd"/></linearGradient><path d="M273.22 85.04l3.55 3.55h1.28c2.9 0 5.64-.57 8.2-1.69a22.67 22.67 0 006.83-4.55 21.47 21.47 0 004.75-6.92 21.51 21.51 0 001.78-8.79v-.97l-15.31-15.3-11.08 34.67z" fill="url(#H)" stroke="#5be492" stroke-width=".25" stroke-miterlimit="10"/><linearGradient id="I" gradientUnits="userSpaceOnUse" x1="85.91" y1="170.23" x2="270.95" y2="-14.81"><stop offset="0" stop-color="#a30aa1"/><stop offset=".58" stop-color="#750ac5"/><stop offset="1" stop-color="#1327bd"/></linearGradient><path fill="url(#I)" stroke="#5be492" stroke-width=".25" stroke-miterlimit="10" d="M237.05 29.08l17.96-8.01-6.56-6.56-36.26 9.5 5.07 5.07z"/><linearGradient id="J" gradientUnits="userSpaceOnUse" x1="125.47" y1="209.79" x2="310.51" y2="24.75"><stop offset="0" stop-color="#a30aa1"/><stop offset=".58" stop-color="#750ac5"/><stop offset="1" stop-color="#1327bd"/></linearGradient><path fill="url(#J)" stroke="#5be492" stroke-width=".25" stroke-miterlimit="10" d="M273.09 39.16l-2.75 3.9v17.45H258l-3.85 5.46 19.07 19.07 11.08-34.67z"/><linearGradient id="K" gradientUnits="userSpaceOnUse" x1="93.05" y1="177.36" x2="278.08" y2="-7.67"><stop offset="0" stop-color="#a30aa1"/><stop offset=".58" stop-color="#750ac5"/><stop offset="1" stop-color="#1327bd"/></linearGradient><path fill="url(#K)" stroke="#5be492" stroke-width=".25" stroke-miterlimit="10" d="M184.13 84.34v3.38l1.94-1.45z"/><linearGradient id="L" gradientUnits="userSpaceOnUse" x1="115.17" y1="199.49" x2="300.21" y2="14.46"><stop offset="0" stop-color="#a30aa1"/><stop offset=".58" stop-color="#750ac5"/><stop offset="1" stop-color="#1327bd"/></linearGradient><path fill="url(#L)" stroke="#5be492" stroke-width=".25" stroke-miterlimit="10" d="M248.7 60.51l5.45 5.46 3.85-5.46z"/><linearGradient id="M" gradientUnits="userSpaceOnUse" x1="108.3" y1="192.62" x2="293.33" y2="7.58"><stop offset="0" stop-color="#a30aa1"/><stop offset=".58" stop-color="#750ac5"/><stop offset="1" stop-color="#1327bd"/></linearGradient><path fill="url(#M)" stroke="#5be492" stroke-width=".25" stroke-miterlimit="10" d="M220.5 60.51l-34.43 25.76 2.31 2.32h35.69l7.49 9.34 22.59-31.96-5.45-5.46z"/><linearGradient id="N" gradientUnits="userSpaceOnUse" x1="95.05" y1="179.37" x2="280.08" y2="-5.67"><stop offset="0" stop-color="#a30aa1"/><stop offset=".58" stop-color="#750ac5"/><stop offset="1" stop-color="#1327bd"/></linearGradient><path fill="url(#N)" stroke="#5be492" stroke-width=".25" stroke-miterlimit="10" d="M184.13 87.72v.87h4.25l-2.31-2.32z"/></svg>